<mxfile host="app.diagrams.net" modified="2023-10-19T16:15:38.076Z" agent="Mozilla/5.0 (Windows NT 10.0; Win64; x64; rv:109.0) Gecko/20100101 Firefox/118.0" version="22.0.5" etag="46-hEqyad6g5BdFXpgNF" type="github">
  <diagram name="Page-1" id="xQ_irn_87bKqsCqs9mon">
    <mxGraphModel>
      <root>
        <mxCell id="0" />
        <mxCell id="1" parent="0" />
      </root>
    </mxGraphModel>
  </diagram>
</mxfile>
